# xmcd CD database file
#
# Track frame offsets:
#	150
#	10477
#	23082
#	38067
#	53630
#	64597
#	75532
#	86520
#	100462
#	112220
#	123070
#	133782
#
# Disc length: 1979 seconds
#
# Revision: 0
# Processed by: cddbd v1.5.1PL0 Copyright (c) Steve Scherf et al.
# Submitted via: CDex 1.51
#
DISCID=9507b90c
DTITLE=Teodoro and Sampaio - Vou Beber de Novo
DYEAR=2004
DGENRE=Country
TTITLE0=Vou Beber de Novo
TTITLE1=Mulher Carente
TTITLE2=To Querendo Mais
TTITLE3=Quando a Saudade Aperta
TTITLE4=Escuta Coracao
TTITLE5=Louca Mania
TTITLE6=Duas Metades
TTITLE7=Da Agua Pro Vinho
TTITLE8=Roxo de Amor
TTITLE9=Rodoviaria do Amor
TTITLE10=Psiu
TTITLE11=Caro Amigo
EXTD=YEAR: 2004
EXTT0=
EXTT1=
EXTT2=
EXTT3=
EXTT4=
EXTT5=
EXTT6=
EXTT7=
EXTT8=
EXTT9=
EXTT10=
EXTT11=
PLAYORDER=
